<?xml version="1.0" encoding="utf-8"?>
<!-- Uploaded to: SVG Repo, www.svgrepo.com, Generator: SVG Repo Mixer Tools -->
<svg width="800px" height="800px" viewBox="0 -3 1030 1030" class="icon"  version="1.1" xmlns="http://www.w3.org/2000/svg"><path d="M929.891667 530.35c16.5375 57.283333 66.733333 86.1 66.608333 114.566667-0.1125 28.704167-17.008333 57.1625-67.316667 57.045833-50.433333-0.2375-67.091667-28.9375-66.966666-57.520833 0.1125-28.575 50.666667-56.925 67.675-114.091667z" fill="#EDE022" /><path d="M882.766667 391.8125l-0.708334 0.2375c-118.816667 43.820833-211.65 103.583333-331.766666 146.695833l-55.391667-58.820833-238.695833-0.945833-19.133334 231.370833 402.75-7.4375 24.091667-31.654167s29.766667-36.375 44.766667-58.583333c15-22.320833 173.379167-220.629167 173.379166-220.629167l0.708334-0.233333z" fill="#EDE022" /><path d="M223.141667 666.5l11.458333-155.05-234.6-92.170833 100.05-154.466667L271.0125 341.695833v107.233334h-4.3l4.258333 1.170833-13.6 184.0125 377.666667-6.979167 211.4625-277.170833c9.229167-12.870833 32.8375-42.033333 55.791667-41.795833 9.125 0.158333 17.083333 4.670833 22.408333 12.7 16.391667 24.391667 24.045833 68.329167 24.870833 73.258333l-31.320833 5.208333c-1.8375-11.004167-8.608333-41.941667-18.516667-58.566666-6.5125 3.3875-18.791667 15.654167-27.558333 27.875l-0.283333 0.3875-220.916667 289.5625-427.833333 7.908333zM47.766667 403.933333l177.329166 69.666667 14.166667-28.4125v-82.958333L111.883333 304.945833 47.766667 403.933333z" fill="#332C2B" /><path d="M549.175 498.0125l-55.095833-63.066667-238.895834 0.6875-0.091666-31.75 253.375-0.729166 49.316666 56.454166 315.2-137.666666 12.7125 29.1zM307.341667 291.325h179.054166v31.75H307.341667z" fill="#332C2B" /><path d="M381.466667 419.733333l-0.470834-22.679166-0.004166-89.854167h31.75v89.525l0.470833 22.35z" fill="#332C2B" /><path d="M932.604167 657.791667c-61.25 0-83.075-37.729167-83.075-73.0375 0-19.079167 13.0375-34.870833 28.1375-53.1625 14.854167-17.995833 31.691667-38.391667 39.7-65.741667l15.233333-52.041667 15.233333 52.0375c8.008333 27.35 24.8125 47.745833 39.6375 65.741667 15.070833 18.295833 28.0875 34.091667 28.0875 53.166667 0.008333 35.308333-21.7875 73.0375-82.954166 73.0375z m-0.004167-147.804167c-9.4875 16.433333-20.695833 30.008333-30.45 41.820833-10.733333 13-20.875 25.279167-20.875 32.945834 0 18.8375 8.908333 41.291667 51.325 41.291666 42.325 0 51.2125-22.458333 51.2125-41.291666 0-7.679167-10.129167-19.966667-20.845833-32.975-9.716667-11.808333-20.895833-25.370833-30.366667-41.791667z" fill="#332C2B" /></svg>